<svg width="21" height="22" viewBox="0 0 21 22" fill="none" xmlns="http://www.w3.org/2000/svg">
<path fill-rule="evenodd" clip-rule="evenodd" d="M14.5613 14.7139C15.787 13.0126 16.625 11.1427 16.625 9.25C16.625 5.86726 13.8827 3.125 10.5 3.125C7.11726 3.125 4.375 5.86726 4.375 9.25C4.375 11.1427 5.21298 13.0126 6.43866 14.7139C7.65509 16.4024 9.15087 17.7815 10.2173 18.6549C10.3922 18.7982 10.6078 18.7982 10.7827 18.6549C11.8491 17.7815 13.3449 16.4024 14.5613 14.7139ZM11.8916 20.0088C14.1528 18.1567 18.375 14.0552 18.375 9.25C18.375 4.90076 14.8492 1.375 10.5 1.375C6.15076 1.375 2.625 4.90076 2.625 9.25C2.625 14.0552 6.8472 18.1567 9.10841 20.0088C9.92824 20.6802 11.0718 20.6802 11.8916 20.0088Z" fill="white"/>
<path fill-rule="evenodd" clip-rule="evenodd" d="M10.5 7.5C9.5335 7.5 8.75 8.2835 8.75 9.25C8.75 10.2165 9.5335 11 10.5 11C11.4665 11 12.25 10.2165 12.25 9.25C12.25 8.2835 11.4665 7.5 10.5 7.5ZM7 9.25C7 7.317 8.567 5.75 10.5 5.75C12.433 5.75 14 7.317 14 9.25C14 11.183 12.433 12.75 10.5 12.75C8.567 12.75 7 11.183 7 9.25Z" fill="white"/>
</svg>
