<svg width="32" height="32" viewBox="0 0 32 32" fill="none" xmlns="http://www.w3.org/2000/svg">
<path fill-rule="evenodd" clip-rule="evenodd" d="M9.37465 13.9282C8.58063 14.3974 7.65444 14.6667 6.66536 14.6667C3.71985 14.6667 1.33203 12.2789 1.33203 9.33333C1.33203 6.38781 3.71985 4 6.66536 4C9.61088 4 11.9987 6.38781 11.9987 9.33333C11.9987 10.3224 11.7295 11.2486 11.2603 12.0426L13.8843 14.6667H21.8532L29.3871 21.6211C30.8191 22.9428 30.1248 25.3323 28.2075 25.6809C24.4554 26.3631 20.6073 25.161 17.9107 22.4644L9.37465 13.9282ZM9.33203 9.33333C9.33203 10.8061 8.13812 12 6.66536 12C5.19261 12 3.9987 10.8061 3.9987 9.33333C3.9987 7.86057 5.19261 6.66667 6.66536 6.66667C8.13812 6.66667 9.33203 7.86057 9.33203 9.33333ZM27.1096 23.1478C24.4198 23.4446 21.7256 22.5081 19.7963 20.5788L16.551 17.3333H20.8106L27.1096 23.1478Z" fill="#C4B087"/>
<path fill-rule="evenodd" clip-rule="evenodd" d="M17.9107 9.53496C20.6073 6.83832 24.4554 5.63628 28.2075 6.31849C30.1248 6.66709 30.8191 9.0565 29.3871 10.3783L21.8532 17.3327H13.8843L11.2603 19.9567C11.7295 20.7507 11.9987 21.6769 11.9987 22.666C11.9987 25.6115 9.61088 27.9993 6.66536 27.9993C3.71985 27.9993 1.33203 25.6115 1.33203 22.666C1.33203 19.7205 3.71985 17.3327 6.66536 17.3327C7.65444 17.3327 8.58063 17.6019 9.37465 18.0711L17.9107 9.53496ZM20.8106 14.666H16.551L19.7963 11.4206C21.7256 9.49124 24.4198 8.55479 27.1096 8.85155L20.8106 14.666ZM9.33203 22.666C9.33203 24.1388 8.13812 25.3327 6.66536 25.3327C5.19261 25.3327 3.9987 24.1388 3.9987 22.666C3.9987 21.1933 5.19261 19.9993 6.66536 19.9993C8.13812 19.9993 9.33203 21.1933 9.33203 22.666Z" fill="#C4B087"/>
</svg>
