<svg width="66" height="12" viewBox="0 0 66 12" fill="none" xmlns="http://www.w3.org/2000/svg">
<g clip-path="url(#clip0_1504_4414)">
<path fill-rule="evenodd" clip-rule="evenodd" d="M4.21054 1.21872C4.55003 0.179697 6.00835 0.1797 6.34784 1.21872L6.95538 3.07814C6.97669 3.14335 7.03648 3.18795 7.10459 3.18942L9.02186 3.23099C10.073 3.25378 10.5215 4.58793 9.70065 5.25001L8.11597 6.52814C8.06535 6.56896 8.04403 6.63644 8.06189 6.69925L8.62505 8.67956C8.92066 9.71905 7.74216 10.546 6.87746 9.90588L5.37434 8.79314C5.31772 8.75122 5.24066 8.75122 5.18404 8.79314L3.68093 9.90588C2.81621 10.546 1.63772 9.71905 1.93333 8.67956L2.49649 6.69925C2.51436 6.63644 2.49303 6.56896 2.44241 6.52814L0.857733 5.25001C0.0368611 4.58793 0.485398 3.25378 1.53652 3.23099L3.4538 3.18942C3.52191 3.18795 3.58169 3.14335 3.603 3.07814L4.21054 1.21872ZM5.43185 1.52272C5.38336 1.37429 5.17503 1.37429 5.12653 1.52272L4.51899 3.38214C4.36982 3.83866 3.95131 4.15081 3.47454 4.16115L1.55726 4.20271C1.4071 4.20597 1.34302 4.39656 1.46029 4.49114L3.04497 5.76927C3.39929 6.05505 3.54857 6.52738 3.42354 6.96704L2.86038 8.94735C2.81815 9.09585 2.9865 9.21399 3.11003 9.12254L4.61315 8.0098C5.00947 7.71641 5.54892 7.71641 5.94523 8.0098L7.44835 9.12254C7.57188 9.21399 7.74023 9.09585 7.69801 8.94735L7.13484 6.96704C7.00981 6.52738 7.1591 6.05505 7.51341 5.76927L9.09809 4.49114C9.21536 4.39656 9.15128 4.20597 9.00112 4.20271L7.08385 4.16115C6.60707 4.15081 6.18856 3.83866 6.0394 3.38214L5.43185 1.52272Z" fill="#C4B087"/>
<path d="M3.7368 3.74612L4.83808 1.10307L5.49884 0.882812L6.37986 3.52587L8.36215 3.74612L9.68367 4.18663L7.70138 6.38917L8.36215 9.03223L7.70138 9.69299L5.27858 8.37146L2.85579 9.69299L2.41528 9.47274L2.85579 7.27019L2.63553 6.16892L1.314 5.2879L1.09375 3.96638L3.7368 3.74612Z" fill="#C4B087" stroke="#C4B087" stroke-width="0.440509"/>
</g>
<path fill-rule="evenodd" clip-rule="evenodd" d="M18.1539 1.31876C18.5217 0.193226 20.1014 0.193229 20.4692 1.31876L21.1273 3.33299C21.1504 3.40364 21.2152 3.45195 21.2889 3.45355L23.3658 3.49857C24.5045 3.52326 24.9904 4.9685 24.1012 5.6857L22.3845 7.07025C22.3297 7.11448 22.3066 7.18757 22.3259 7.25561L22.936 9.40081C23.2562 10.5268 21.9796 11.4227 21.0429 10.7292L19.4146 9.52384C19.3533 9.47844 19.2698 9.47844 19.2085 9.52384L17.5802 10.7292C16.6435 11.4227 15.3669 10.5268 15.6871 9.4008L16.2972 7.25561C16.3165 7.18757 16.2934 7.11448 16.2386 7.07025L14.522 5.6857C13.6327 4.9685 14.1186 3.52326 15.2573 3.49857L17.3342 3.45355C17.408 3.45195 17.4727 3.40364 17.4958 3.33299L18.1539 1.31876ZM19.4769 1.64808C19.4244 1.48729 19.1987 1.48729 19.1462 1.64808L18.488 3.66232C18.3265 4.15684 17.8731 4.49498 17.3566 4.50618L15.2797 4.5512C15.1171 4.55473 15.0477 4.76119 15.1747 4.86365L16.8913 6.2482C17.2751 6.55777 17.4368 7.06942 17.3014 7.5457L16.6913 9.69089C16.6456 9.85176 16.828 9.97973 16.9618 9.88067L18.5901 8.67527C19.0194 8.35746 19.6037 8.35746 20.033 8.67527L21.6613 9.88067C21.7951 9.97973 21.9775 9.85175 21.9318 9.6909L21.3217 7.5457C21.1863 7.06942 21.348 6.55777 21.7318 6.2482L23.4484 4.86365C23.5755 4.76119 23.506 4.55473 23.3434 4.5512L21.2665 4.50618C20.75 4.49498 20.2966 4.15684 20.1351 3.66232L19.4769 1.64808Z" fill="#C4B087"/>
<path d="M17.6405 4.05679L18.8334 1.19367L19.5492 0.955078L20.5036 3.8182L22.6509 4.05679L24.0825 4.53398L21.9351 6.91991L22.6509 9.78303L21.9351 10.4988L19.3106 9.06725L16.6861 10.4988L16.2089 10.2602L16.6861 7.87428L16.4475 6.68132L15.0159 5.72694L14.7773 4.29538L17.6405 4.05679Z" fill="#C4B087" stroke="#C4B087" stroke-width="0.477187"/>
<g clip-path="url(#clip1_1504_4414)">
<path fill-rule="evenodd" clip-rule="evenodd" d="M31.7516 1.31876C32.1193 0.193226 33.6991 0.193229 34.0668 1.31876L34.725 3.33299C34.748 3.40364 34.8128 3.45195 34.8866 3.45355L36.9635 3.49857C38.1021 3.52326 38.588 4.9685 37.6988 5.6857L35.9822 7.07025C35.9274 7.11448 35.9042 7.18757 35.9236 7.25561L36.5336 9.40081C36.8539 10.5268 35.5773 11.4227 34.6405 10.7292L33.0123 9.52384C32.9509 9.47844 32.8675 9.47844 32.8061 9.52384L31.1779 10.7292C30.2412 11.4227 28.9645 10.5268 29.2848 9.4008L29.8948 7.25561C29.9142 7.18757 29.8911 7.11448 29.8362 7.07025L28.1196 5.6857C27.2304 4.9685 27.7163 3.52326 28.8549 3.49857L30.9318 3.45355C31.0056 3.45195 31.0704 3.40364 31.0935 3.33299L31.7516 1.31876ZM33.0746 1.64808C33.022 1.48729 32.7964 1.48729 32.7438 1.64808L32.0857 3.66232C31.9241 4.15684 31.4708 4.49498 30.9543 4.50618L28.8774 4.5512C28.7147 4.55473 28.6453 4.76119 28.7723 4.86365L30.489 6.2482C30.8728 6.55777 31.0345 7.06942 30.899 7.5457L30.289 9.69089C30.2433 9.85176 30.4256 9.97973 30.5594 9.88067L32.1877 8.67527C32.617 8.35746 33.2014 8.35746 33.6307 8.67527L35.259 9.88067C35.3928 9.97973 35.5752 9.85175 35.5294 9.6909L34.9194 7.5457C34.7839 7.06942 34.9456 6.55777 35.3295 6.2482L37.0461 4.86365C37.1731 4.76119 37.1037 4.55473 36.941 4.5512L34.8641 4.50618C34.3477 4.49498 33.8943 4.15684 33.7327 3.66232L33.0746 1.64808Z" fill="#C4B087"/>
<path d="M31.2381 4.05679L32.4311 1.19367L33.1469 0.955078L34.1012 3.8182L36.2486 4.05679L37.6801 4.53398L35.5328 6.91991L36.2486 9.78303L35.5328 10.4988L32.9083 9.06725L30.2837 10.4988L29.8066 10.2602L30.2837 7.87428L30.0452 6.68132L28.6136 5.72694L28.375 4.29538L31.2381 4.05679Z" fill="#C4B087" stroke="#C4B087" stroke-width="0.477187"/>
</g>
<path fill-rule="evenodd" clip-rule="evenodd" d="M45.3453 1.31876C45.7131 0.193226 47.2928 0.193229 47.6606 1.31876L48.3187 3.33299C48.3418 3.40364 48.4066 3.45195 48.4803 3.45355L50.5573 3.49857C51.6959 3.52326 52.1818 4.9685 51.2926 5.6857L49.5759 7.07025C49.5211 7.11448 49.498 7.18757 49.5173 7.25561L50.1274 9.40081C50.4476 10.5268 49.171 11.4227 48.2343 10.7292L46.606 9.52384C46.5447 9.47844 46.4612 9.47844 46.3999 9.52384L44.7716 10.7292C43.8349 11.4227 42.5583 10.5268 42.8785 9.4008L43.4886 7.25561C43.5079 7.18757 43.4848 7.11448 43.43 7.07025L41.7134 5.6857C40.8241 4.9685 41.31 3.52326 42.4487 3.49857L44.5256 3.45355C44.5994 3.45195 44.6641 3.40364 44.6872 3.33299L45.3453 1.31876ZM46.6683 1.64808C46.6158 1.48729 46.3901 1.48729 46.3376 1.64808L45.6795 3.66232C45.5179 4.15684 45.0645 4.49498 44.548 4.50618L42.4711 4.5512C42.3085 4.55473 42.2391 4.76119 42.3661 4.86365L44.0827 6.2482C44.4665 6.55777 44.6282 7.06942 44.4928 7.5457L43.8827 9.69089C43.837 9.85176 44.0194 9.97973 44.1532 9.88067L45.7815 8.67527C46.2108 8.35746 46.7951 8.35746 47.2245 8.67527L48.8527 9.88067C48.9865 9.97973 49.1689 9.85175 49.1232 9.6909L48.5131 7.5457C48.3777 7.06942 48.5394 6.55777 48.9232 6.2482L50.6398 4.86365C50.7669 4.76119 50.6974 4.55473 50.5348 4.5512L48.4579 4.50618C47.9414 4.49498 47.488 4.15684 47.3265 3.66232L46.6683 1.64808Z" fill="#C4B087"/>
<path d="M44.8319 4.05679L46.0248 1.19367L46.7406 0.955078L47.695 3.8182L49.8423 4.05679L51.2739 4.53398L49.1265 6.91991L49.8423 9.78303L49.1265 10.4988L46.502 9.06725L43.8775 10.4988L43.4003 10.2602L43.8775 7.87428L43.6389 6.68132L42.2073 5.72694L41.9688 4.29538L44.8319 4.05679Z" fill="#C4B087" stroke="#C4B087" stroke-width="0.477187"/>
<g clip-path="url(#clip2_1504_4414)">
<path fill-rule="evenodd" clip-rule="evenodd" d="M58.9352 1.31876C59.3029 0.193226 60.8827 0.193229 61.2504 1.31876L61.9086 3.33299C61.9316 3.40364 61.9964 3.45195 62.0702 3.45355L64.1471 3.49857C65.2857 3.52326 65.7716 4.9685 64.8824 5.6857L63.1658 7.07025C63.1109 7.11448 63.0878 7.18757 63.1072 7.25561L63.7172 9.40081C64.0375 10.5268 62.7608 11.4227 61.8241 10.7292L60.1959 9.52384C60.1345 9.47844 60.0511 9.47844 59.9897 9.52384L58.3615 10.7292C57.4248 11.4227 56.1481 10.5268 56.4684 9.4008L57.0784 7.25561C57.0978 7.18757 57.0747 7.11448 57.0198 7.07025L55.3032 5.6857C54.414 4.9685 54.8999 3.52326 56.0385 3.49857L58.1154 3.45355C58.1892 3.45195 58.254 3.40364 58.277 3.33299L58.9352 1.31876ZM60.2582 1.64808C60.2056 1.48729 59.98 1.48729 59.9274 1.64808L59.2693 3.66232C59.1077 4.15684 58.6544 4.49498 58.1379 4.50618L56.061 4.5512C55.8983 4.55473 55.8289 4.76119 55.9559 4.86365L57.6726 6.2482C58.0564 6.55777 58.2181 7.06942 58.0826 7.5457L57.4726 9.69089C57.4268 9.85176 57.6092 9.97973 57.743 9.88067L59.3713 8.67527C59.8006 8.35746 60.385 8.35746 60.8143 8.67527L62.4426 9.88067C62.5764 9.97973 62.7588 9.85175 62.713 9.6909L62.103 7.5457C61.9675 7.06942 62.1292 6.55777 62.513 6.2482L64.2297 4.86365C64.3567 4.76119 64.2873 4.55473 64.1246 4.5512L62.0477 4.50618C61.5312 4.49498 61.0779 4.15684 60.9163 3.66232L60.2582 1.64808Z" fill="#C4B087"/>
<path d="M58.4217 4.05679L59.6147 1.19367L60.3305 0.955078L61.2848 3.8182L63.4322 4.05679L64.8637 4.53398L62.7164 6.91991L63.4322 9.78303L62.7164 10.4988L60.0919 9.06725L57.4673 10.4988L56.9902 10.2602L57.4673 7.87428L57.2287 6.68132L55.7972 5.72694L55.5586 4.29538L58.4217 4.05679Z" fill="#C4B087" stroke="#C4B087" stroke-width="0.477187"/>
</g>
<defs>
<clipPath id="clip0_1504_4414">
<rect width="10.5722" height="10.5722" fill="white"/>
</clipPath>
<clipPath id="clip1_1504_4414">
<rect width="11.4525" height="11.4525" fill="white" transform="translate(27.1875)"/>
</clipPath>
<clipPath id="clip2_1504_4414">
<rect width="11.4525" height="11.4525" fill="white" transform="translate(54.3711)"/>
</clipPath>
</defs>
</svg>
