<svg width="32" height="32" viewBox="0 0 32 32" fill="none" xmlns="http://www.w3.org/2000/svg">
<path fill-rule="evenodd" clip-rule="evenodd" d="M6.66717 16C4.01979 12.8232 6.27884 8.00001 10.4142 8.00001H13.8398C15.0331 8.00001 16.0005 7.03264 16.0005 5.83934V2.91273C16.0005 2.79313 16.1193 2.70989 16.2317 2.75076L21.6312 4.71421C26.2315 6.38703 28.0491 11.9272 25.3338 16H6.66717ZM23.695 13.3333C24.4953 10.9055 23.267 8.14653 20.7199 7.22033L18.6277 6.45952C18.3233 8.83267 16.2958 10.6667 13.8398 10.6667H10.4142C8.92596 10.6667 7.97386 12.0448 8.24524 13.3333H23.695Z" fill="#C4B087"/>
<path fill-rule="evenodd" clip-rule="evenodd" d="M25.3346 16.0007H6.66797C5.93159 16.0007 5.33464 16.5976 5.33464 17.334V21.334C5.33464 24.2795 7.72245 26.6673 10.668 26.6673H21.3346C24.2802 26.6673 26.668 24.2795 26.668 21.334V17.334C26.668 16.5976 26.071 16.0007 25.3346 16.0007ZM6.66797 13.334C4.45883 13.334 2.66797 15.1248 2.66797 17.334V21.334C2.66797 25.7523 6.24969 29.334 10.668 29.334H21.3346C25.7529 29.334 29.3346 25.7523 29.3346 21.334V17.334C29.3346 15.1248 27.5438 13.334 25.3346 13.334H6.66797Z" fill="#C4B087"/>
</svg>
