<svg width="32" height="32" viewBox="0 0 32 32" fill="none" xmlns="http://www.w3.org/2000/svg">
<path d="M6.66797 5.33398C6.66797 3.12485 8.45883 1.33398 10.668 1.33398C11.4043 1.33398 12.0013 1.93094 12.0013 2.66732V10.6673C12.0013 11.4037 11.4043 12.0007 10.668 12.0007H8.0013C7.26492 12.0007 6.66797 11.4037 6.66797 10.6673V5.33398Z" fill="#C4B087"/>
<path fill-rule="evenodd" clip-rule="evenodd" d="M5.33333 18.3525V13.334C5.33333 11.1248 7.12419 9.33398 9.33333 9.33398C11.5425 9.33398 13.3333 11.1248 13.3333 13.334V18.3525C14.1517 19.0849 14.6667 20.1493 14.6667 21.334V26.6673C14.6667 28.8765 12.8758 30.6673 10.6667 30.6673H8C5.79086 30.6673 4 28.8765 4 26.6673V21.334C4 20.1493 4.515 19.0849 5.33333 18.3525ZM10.6667 13.334V17.334H8V13.334C8 12.5976 8.59695 12.0007 9.33333 12.0007C10.0697 12.0007 10.6667 12.5976 10.6667 13.334ZM8 20.0007C7.26362 20.0007 6.66667 20.5976 6.66667 21.334V26.6673C6.66667 27.4037 7.26362 28.0007 8 28.0007H10.6667C11.403 28.0007 12 27.4037 12 26.6673V21.334C12 20.5976 11.403 20.0007 10.6667 20.0007H8Z" fill="#C4B087"/>
<path fill-rule="evenodd" clip-rule="evenodd" d="M23.9987 16.0007H21.332C20.5957 16.0007 19.9987 16.5976 19.9987 17.334V26.6673C19.9987 27.4037 20.5957 28.0007 21.332 28.0007H23.9987C24.7351 28.0007 25.332 27.4037 25.332 26.6673V17.334C25.332 16.5976 24.7351 16.0007 23.9987 16.0007ZM21.332 13.334C19.1229 13.334 17.332 15.1248 17.332 17.334V26.6673C17.332 28.8765 19.1229 30.6673 21.332 30.6673H23.9987C26.2078 30.6673 27.9987 28.8765 27.9987 26.6673V17.334C27.9987 15.1248 26.2078 13.334 23.9987 13.334H21.332Z" fill="#C4B087"/>
</svg>
