<svg width="32" height="32" viewBox="0 0 32 32" fill="none" xmlns="http://www.w3.org/2000/svg">
<path d="M24 29.3333C24 30.0697 23.403 30.6667 22.6667 30.6667C21.9303 30.6667 21.3333 30.0697 21.3333 29.3333C20.597 29.3333 20 28.7364 20 28C20 27.2636 20.597 26.6667 21.3333 26.6667L21.3333 25.3333C20.597 25.3333 20 24.7364 20 24C20 23.2636 20.597 22.6667 21.3333 22.6667L21.3333 13.3333C21.3333 12.597 21.9303 12 22.6667 12C23.403 12 24 12.597 24 13.3333L24 22.6667C24.7364 22.6667 25.3333 23.2636 25.3333 24C25.3333 24.7364 24.7364 25.3333 24 25.3333V26.6667C24.7364 26.6667 25.3333 27.2636 25.3333 28C25.3333 28.7364 24.7364 29.3333 24 29.3333Z" fill="#122826"/>
<path fill-rule="evenodd" clip-rule="evenodd" d="M21.7549 11.9993L23.5816 11.9993C24.3705 11.9993 24.9868 11.3183 24.9084 10.5333L24.375 5.20001C24.3069 4.51841 23.7333 3.99935 23.0483 3.99935L22.2882 3.99935C21.6032 3.99935 21.0297 4.51841 20.9615 5.20001L20.4282 10.5333C20.3497 11.3183 20.966 11.9993 21.7549 11.9993ZM23.5816 14.666C25.9481 14.666 27.7973 12.6227 27.5618 10.268L27.0285 4.93467C26.824 2.88986 25.1033 1.33268 23.0483 1.33268L22.2882 1.33268C20.2332 1.33268 18.5125 2.88986 18.3081 4.93467L17.7747 10.268C17.5393 12.6227 19.3884 14.666 21.7549 14.666L23.5816 14.666Z" fill="#122826"/>
<path fill-rule="evenodd" clip-rule="evenodd" d="M8.00016 6.66602C7.26378 6.66602 6.66683 7.26297 6.66683 7.99935V9.66133C5.17142 10.3103 4.15718 11.8449 4.26576 13.5822L5.09909 26.9155C5.23085 29.0237 6.97905 30.666 9.09131 30.666H9.5757C11.6879 30.666 13.4361 29.0237 13.5679 26.9155L14.4012 13.5822C14.5098 11.8449 13.4956 10.3103 12.0002 9.66132V7.99935C12.0002 7.26297 11.4032 6.66602 10.6668 6.66602H8.00016ZM8.25797 11.9993H10.409C11.1781 11.9993 11.7877 12.6483 11.7398 13.4159L10.9064 26.7492C10.8625 27.4519 10.2798 27.9993 9.5757 27.9993H9.09131C8.38722 27.9993 7.80449 27.4519 7.76057 26.7492L6.92724 13.4159C6.87926 12.6483 7.48888 11.9993 8.25797 11.9993Z" fill="#122826"/>
</svg>
