<svg width="36" height="37" viewBox="0 0 36 37" fill="none" xmlns="http://www.w3.org/2000/svg">
<path fill-rule="evenodd" clip-rule="evenodd" d="M27 29H9C8.17157 29 7.5 29.6716 7.5 30.5C7.5 31.3284 8.17157 32 9 32H27C27.8284 32 28.5 31.3284 28.5 30.5C28.5 29.6716 27.8284 29 27 29ZM9 26C6.51472 26 4.5 28.0147 4.5 30.5C4.5 32.9853 6.51472 35 9 35H27C29.4853 35 31.5 32.9853 31.5 30.5C31.5 28.0147 29.4853 26 27 26H9Z" fill="#C4B087"/>
<path fill-rule="evenodd" clip-rule="evenodd" d="M18 26C23.799 26 28.5 21.299 28.5 15.5C28.5 9.70101 23.799 5 18 5C12.201 5 7.5 9.70101 7.5 15.5C7.5 21.299 12.201 26 18 26ZM18 29C25.4558 29 31.5 22.9558 31.5 15.5C31.5 8.04416 25.4558 2 18 2C10.5442 2 4.5 8.04416 4.5 15.5C4.5 22.9558 10.5442 29 18 29Z" fill="#C4B087"/>
<path d="M16.0607 12.0607C16.6464 11.4749 16.6464 10.5251 16.0607 9.93934C15.4749 9.35355 14.5251 9.35355 13.9393 9.93934L12.4393 11.4393C11.8536 12.0251 11.8536 12.9749 12.4393 13.5607C13.0251 14.1464 13.9749 14.1464 14.5607 13.5607L16.0607 12.0607Z" fill="#C4B087"/>
<path d="M22.0607 13.5607C22.6464 12.9749 22.6464 12.0251 22.0607 11.4393C21.4749 10.8536 20.5251 10.8536 19.9393 11.4393L13.9393 17.4393C13.3536 18.0251 13.3536 18.9749 13.9393 19.5607C14.5251 20.1464 15.4749 20.1464 16.0607 19.5607L22.0607 13.5607Z" fill="#C4B087"/>
</svg>
