<svg width="12" height="12" viewBox="0 0 12 12" fill="none" xmlns="http://www.w3.org/2000/svg">
<g clip-path="url(#clip0_1597_2263)">
<path fill-rule="evenodd" clip-rule="evenodd" d="M6.28999 10.1165C8.34939 10.1165 10.0189 8.44704 10.0189 6.38765C10.0189 4.32825 8.34939 2.65878 6.28999 2.65878C4.23059 2.65878 2.56112 4.32825 2.56112 6.38765C2.56112 8.44704 4.23059 10.1165 6.28999 10.1165ZM6.28999 11.0487C8.86424 11.0487 10.9511 8.96189 10.9511 6.38765C10.9511 3.8134 8.86424 1.72656 6.28999 1.72656C3.71574 1.72656 1.62891 3.8134 1.62891 6.38765C1.62891 8.96189 3.71574 11.0487 6.28999 11.0487Z" fill="#C4B087"/>
<path fill-rule="evenodd" clip-rule="evenodd" d="M7.10172 9.26663C7.44603 8.578 7.6859 7.56143 7.6859 6.38765C7.6859 5.21387 7.44603 4.19729 7.10172 3.50866C6.72952 2.76427 6.38781 2.65878 6.28757 2.65878C6.18733 2.65878 5.84563 2.76427 5.47343 3.50866C5.12912 4.19729 4.88925 5.21387 4.88925 6.38765C4.88925 7.56143 5.12912 8.578 5.47343 9.26663C5.84563 10.011 6.18733 10.1165 6.28757 10.1165C6.38781 10.1165 6.72952 10.011 7.10172 9.26663ZM6.28757 11.0487C7.5747 11.0487 8.61812 8.96189 8.61812 6.38765C8.61812 3.8134 7.5747 1.72656 6.28757 1.72656C5.00045 1.72656 3.95703 3.8134 3.95703 6.38765C3.95703 8.96189 5.00045 11.0487 6.28757 11.0487Z" fill="#C4B087"/>
<path fill-rule="evenodd" clip-rule="evenodd" d="M10.9281 6.85409C10.9433 6.70079 10.9511 6.54529 10.9511 6.38798C10.9511 6.23067 10.9433 6.07518 10.9281 5.92188H1.65192C1.6367 6.07518 1.62891 6.23067 1.62891 6.38798C1.62891 6.54529 1.6367 6.70079 1.65192 6.85409H10.9281Z" fill="#C4B087"/>
</g>
<defs>
<clipPath id="clip0_1597_2263">
<rect width="11.1866" height="11.1866" fill="white" transform="translate(0.695312 0.794922)"/>
</clipPath>
</defs>
</svg>
