<svg width="11" height="11" viewBox="0 0 11 11" fill="none" xmlns="http://www.w3.org/2000/svg">
<path fill-rule="evenodd" clip-rule="evenodd" d="M5.5 5.95768C3.72809 5.95768 2.29167 7.3941 2.29167 9.16601V10.0827C2.29167 10.3358 2.08646 10.541 1.83333 10.541C1.5802 10.541 1.375 10.3358 1.375 10.0827V9.16601C1.375 6.88784 3.22183 5.04102 5.5 5.04102C7.77817 5.04102 9.625 6.88784 9.625 9.16601V10.0827C9.625 10.3358 9.4198 10.541 9.16667 10.541C8.91354 10.541 8.70833 10.3358 8.70833 10.0827V9.16601C8.70833 7.3941 7.27191 5.95768 5.5 5.95768Z" fill="#C4B087"/>
<path fill-rule="evenodd" clip-rule="evenodd" d="M5.5 5.04232C6.51252 5.04232 7.33333 4.22151 7.33333 3.20898C7.33333 2.19646 6.51252 1.37565 5.5 1.37565C4.48748 1.37565 3.66667 2.19646 3.66667 3.20898C3.66667 4.22151 4.48748 5.04232 5.5 5.04232ZM5.5 5.95898C7.01878 5.95898 8.25 4.72777 8.25 3.20898C8.25 1.6902 7.01878 0.458984 5.5 0.458984C3.98122 0.458984 2.75 1.6902 2.75 3.20898C2.75 4.72777 3.98122 5.95898 5.5 5.95898Z" fill="#C4B087"/>
</svg>
