<svg width="20" height="19" viewBox="0 0 20 19" fill="none" xmlns="http://www.w3.org/2000/svg">
<path fill-rule="evenodd" clip-rule="evenodd" d="M5.21319 9.49935C4.96859 9.49935 4.78253 9.71898 4.82274 9.96026L5.58097 14.5096C5.70822 15.2731 6.36877 15.8327 7.14276 15.8327H12.861C13.635 15.8327 14.2955 15.2731 14.4228 14.5096L15.181 9.96026C15.2212 9.71898 15.0351 9.49935 14.7905 9.49935H5.21319ZM3.81139 7.91602C3.32219 7.91602 2.95007 8.35529 3.0305 8.83783L4.01918 14.7699C4.27367 16.2969 5.59477 17.416 7.14276 17.416H12.861C14.409 17.416 15.7301 16.2969 15.9845 14.7699L16.9732 8.83783C17.0537 8.35529 16.6815 7.91602 16.1923 7.91602H3.81139Z" fill="#C4B087"/>
<path d="M8.41667 11.084C7.97944 11.084 7.625 11.4384 7.625 11.8757V13.459C7.625 13.8962 7.97944 14.2507 8.41667 14.2507C8.85389 14.2507 9.20833 13.8962 9.20833 13.459V11.8757C9.20833 11.4384 8.85389 11.084 8.41667 11.084Z" fill="#C4B087"/>
<path d="M11.5833 11.084C11.1461 11.084 10.7917 11.4384 10.7917 11.8757V13.459C10.7917 13.8962 11.1461 14.2507 11.5833 14.2507C12.0206 14.2507 12.375 13.8962 12.375 13.459V11.8757C12.375 11.4384 12.0206 11.084 11.5833 11.084Z" fill="#C4B087"/>
<path d="M8.97516 2.93544C9.28432 2.62628 9.28432 2.12502 8.97516 1.81586C8.66599 1.50669 8.16474 1.50669 7.85557 1.81586L4.68891 4.98253C4.37974 5.29169 4.37974 5.79295 4.68891 6.10211C4.99807 6.41128 5.49933 6.41128 5.80849 6.10211L8.97516 2.93544Z" fill="#C4B087"/>
<path d="M11.0222 2.93544C10.7131 2.62628 10.7131 2.12502 11.0222 1.81586C11.3314 1.50669 11.8327 1.50669 12.1418 1.81586L15.3085 4.98253C15.6177 5.29169 15.6177 5.79295 15.3085 6.10211C14.9993 6.41128 14.4981 6.41128 14.1889 6.10211L11.0222 2.93544Z" fill="#C4B087"/>
<path fill-rule="evenodd" clip-rule="evenodd" d="M15.5404 6.33333H4.45703C4.01981 6.33333 3.66536 6.68777 3.66536 7.125C3.66536 7.56223 4.01981 7.91667 4.45703 7.91667H15.5404C15.9776 7.91667 16.332 7.56223 16.332 7.125C16.332 6.68777 15.9776 6.33333 15.5404 6.33333ZM4.45703 4.75C3.14536 4.75 2.08203 5.81332 2.08203 7.125C2.08203 8.43668 3.14535 9.5 4.45703 9.5H15.5404C16.852 9.5 17.9154 8.43668 17.9154 7.125C17.9154 5.81332 16.852 4.75 15.5404 4.75H4.45703Z" fill="#C4B087"/>
</svg>
