<svg width="16" height="16" viewBox="0 0 16 16" fill="none" xmlns="http://www.w3.org/2000/svg">
<path fill-rule="evenodd" clip-rule="evenodd" d="M13.6 3.2H2.4C1.95817 3.2 1.6 3.55817 1.6 4V13.6C1.6 14.0418 1.95817 14.4 2.4 14.4H13.6C14.0418 14.4 14.4 14.0418 14.4 13.6V8.8V4C14.4 3.55817 14.0418 3.2 13.6 3.2ZM2.4 1.6C1.07452 1.6 0 2.67452 0 4V13.6C0 14.9255 1.07452 16 2.4 16H13.6C14.9255 16 16 14.9255 16 13.6V8.8V4C16 2.67452 14.9255 1.6 13.6 1.6H2.4Z" fill="white"/>
<path fill-rule="evenodd" clip-rule="evenodd" d="M6.4 8C5.95817 8 5.6 8.35817 5.6 8.8C5.6 9.24183 5.95817 9.6 6.4 9.6H12C12.4418 9.6 12.8 9.24183 12.8 8.8C12.8 8.35817 12.4418 8 12 8H6.4ZM4 11.2C3.55817 11.2 3.2 11.5582 3.2 12C3.2 12.4418 3.55817 12.8 4 12.8H8.8C9.24183 12.8 9.6 12.4418 9.6 12C9.6 11.5582 9.24183 11.2 8.8 11.2H4Z" fill="white"/>
<path fill-rule="evenodd" clip-rule="evenodd" d="M4 0C3.55817 0 3.2 0.358172 3.2 0.8V4C3.2 4.44183 3.55817 4.8 4 4.8C4.44183 4.8 4.8 4.44183 4.8 4V0.8C4.8 0.358172 4.44183 0 4 0ZM12 0C11.5582 0 11.2 0.358172 11.2 0.8V4C11.2 4.44183 11.5582 4.8 12 4.8C12.4418 4.8 12.8 4.44183 12.8 4V0.8C12.8 0.358172 12.4418 0 12 0Z" fill="white"/>
</svg>
