<svg width="9" height="11" viewBox="0 0 9 11" fill="none" xmlns="http://www.w3.org/2000/svg">
<path fill-rule="evenodd" clip-rule="evenodd" d="M1.29297 -2.18532e-07C1.03984 -1.9926e-07 0.834636 0.205203 0.834636 0.458333L0.834636 2.75C0.834636 4.26878 2.06585 5.5 3.58464 5.5C4.59716 5.5 5.41797 6.32081 5.41797 7.33333L5.41797 9.43534L4.36706 8.38443C4.18807 8.20544 3.89787 8.20544 3.71888 8.38443C3.53989 8.56342 3.53989 8.85362 3.71888 9.03262L5.55221 10.8659C5.63817 10.9519 5.75474 11.0002 5.8763 11.0002C5.99786 11.0002 6.11444 10.9519 6.20039 10.8659L8.03373 9.03262C8.21272 8.85362 8.21272 8.56342 8.03373 8.38443C7.85474 8.20544 7.56453 8.20544 7.38554 8.38443L6.33464 9.43534L6.33464 7.33333C6.33464 5.81455 5.10342 4.58333 3.58464 4.58333C2.57211 4.58333 1.7513 3.76252 1.7513 2.75L1.7513 0.458333C1.7513 0.205203 1.5461 -2.10486e-07 1.29297 -2.18532e-07Z" fill="#DEC395"/>
</svg>
