<svg width="17" height="13" viewBox="0 0 17 13" fill="none" xmlns="http://www.w3.org/2000/svg">
<path fill-rule="evenodd" clip-rule="evenodd" d="M9.20833 4.37405C9.20833 3.98285 8.8912 3.66572 8.5 3.66572C8.1088 3.66572 7.79167 3.98285 7.79167 4.37405L7.79167 9.74761L6.87587 8.83182C6.59925 8.55519 6.15075 8.55519 5.87413 8.83181C5.59751 9.10844 5.59751 9.55693 5.87413 9.83355L7.99913 11.9585C8.13197 12.0914 8.31214 12.166 8.5 12.166C8.68786 12.166 8.86803 12.0914 9.00087 11.9585L11.1259 9.83355C11.4025 9.55693 11.4025 9.10844 11.1259 8.83182C10.8492 8.55519 10.4008 8.55519 10.1241 8.83182L9.20833 9.74761L9.20833 4.37405ZM2.125 10.7493C0.951393 10.7493 0 9.79795 0 8.62435V2.24935C0 1.07574 0.951395 0.12435 2.125 0.12435H14.875C16.0486 0.12435 17 1.07574 17 2.24935V8.62435C17 9.79795 16.0486 10.7493 14.875 10.7493H13.1042C12.713 10.7493 12.3958 10.4322 12.3958 10.041C12.3958 9.64981 12.713 9.33268 13.1042 9.33268H14.875C15.2662 9.33268 15.5833 9.01555 15.5833 8.62435V2.24935C15.5833 1.85815 15.2662 1.54102 14.875 1.54102H2.125C1.7338 1.54102 1.41667 1.85815 1.41667 2.24935V8.62435C1.41667 9.01555 1.7338 9.33268 2.125 9.33268H3.88571C4.27692 9.33268 4.59405 9.64981 4.59405 10.041C4.59405 10.4322 4.27692 10.7493 3.88571 10.7493H2.125Z" fill="#B9A881"/>
</svg>
