<svg width="24" height="24" viewBox="0 0 24 24" fill="none" xmlns="http://www.w3.org/2000/svg">
<g clip-path="url(#clip0_1569_2269)">
<path fill-rule="evenodd" clip-rule="evenodd" d="M5 -4.76798e-07C4.44771 -4.34748e-07 4 0.447715 4 0.999999L4 6C4 9.31371 6.68629 12 10 12C12.2091 12 14 13.7909 14 16L14 20.5862L11.7071 18.2933C11.3166 17.9028 10.6834 17.9028 10.2929 18.2933C9.90237 18.6838 9.90237 19.317 10.2929 19.7075L14.2929 23.7075C14.4804 23.8951 14.7348 24.0004 15 24.0004C15.2652 24.0004 15.5196 23.8951 15.7071 23.7075L19.7071 19.7075C20.0976 19.317 20.0976 18.6838 19.7071 18.2933C19.3166 17.9028 18.6834 17.9028 18.2929 18.2933L16 20.5862L16 16C16 12.6863 13.3137 10 10 10C7.79086 10 6 8.20914 6 6L6 1C6 0.447715 5.55228 -4.59242e-07 5 -4.76798e-07Z" fill="white"/>
</g>
<defs>
<clipPath id="clip0_1569_2269">
<rect width="24" height="24" fill="white" transform="translate(24) rotate(90)"/>
</clipPath>
</defs>
</svg>
